<svg width="56px" height="56px" version="1.1" viewBox="0 0 56 56" xmlns="http://www.w3.org/2000/svg" >

 <path d="m19.17 48.94c-0.91548-0.042203-2.0227-0.16457-2.6593-0.29391-3.6375-0.73903-6.3833-3.4496-7.1459-7.0542-0.28506-1.3475-0.29889-1.8803-0.29959-11.543-4.076e-4 -5.6787 0.0254-9.5169 0.067045-9.9712 0.24739-2.6987 1.0765-4.6042 2.7176-6.246 1.3582-1.3587 3.0405-2.2132 5.0035-2.5413 1.512-0.25272 4.2215-0.33343 4.6856-0.13957 0.96334 0.40241 1.2134 1.641 0.47949 2.375-0.39548 0.39548-0.53526 0.42376-2.3785 0.48115-2.3502 0.07317-3.3236 0.272-4.4448 0.90789-1.5703 0.89061-2.6009 2.3368-2.972 4.1707-0.25046 1.2375-0.28162 2.6859-0.25391 11.803 0.02908 9.569 0.02678 9.5149 0.45928 10.81 0.72034 2.1563 2.463 3.6754 4.6951 4.0925 1.127 0.21065 2.2985 0.23633 10.842 0.23768 8.7848 0.0014 9.8549-0.02396 11.015-0.26089 2.1992-0.44905 3.8772-1.9372 4.5899-4.0705 0.44576-1.3344 0.44281-1.2571 0.44281-11.614 0-9.9612-0.0045-10.116-0.3321-11.407-0.50766-2.0013-1.9707-3.5705-3.9477-4.2341-0.84358-0.28318-1.5887-0.37872-3.3748-0.43275-1.8385-0.05561-1.9794-0.08489-2.3797-0.49425-0.72369-0.74021-0.47476-1.9643 0.48063-2.3633 0.4621-0.19303 3.2135-0.1122 4.6843 0.13762 1.0177 0.17286 1.7177 0.40112 2.6536 0.86524 1.8179 0.90157 3.1289 2.1975 4.0294 3.9828 0.57281 1.1358 0.89396 2.3534 1.0395 3.9412 0.09057 0.98802 0.09026 18.798-3.36e-4 19.842-0.21169 2.4392-0.89001 4.164-2.2842 5.8082-1.2326 1.4536-3.0814 2.5126-5.0939 2.9179-1.4269 0.28734-1.5084 0.28962-10.851 0.30343-4.9487 0.0073-9.2091 0.0036-9.4676-0.0084z"/>
 <path d="m27.556 38.89c-0.1335-0.04982-0.3299-0.15393-0.43645-0.23135-0.10655-0.07742-1.907-1.8576-4.0011-3.9559-3.971-3.9791-4.0779-4.1009-4.0804-4.6544-0.0049-1.044 0.97024-1.7405 1.979-1.4136 0.21598 0.07001 0.77533 0.59182 2.8556 2.664 1.4229 1.4173 2.6089 2.5769 2.6355 2.5769 0.02664 0 0.04843-6.2408 0.04843-13.868 0-13.655 2e-3 -13.872 0.13198-14.127 0.55912-1.096 2.0642-1.096 2.6233 0 0.12994 0.25471 0.13198 0.47233 0.13198 14.127 0 7.6276 0.02179 13.868 0.04843 13.868s1.2126-1.1596 2.6355-2.5769c2.0803-2.0722 2.6397-2.594 2.8556-2.664 1.0087-0.32698 1.9839 0.36955 1.979 1.4136-0.0026 0.55388-0.10771 0.67366-4.114 4.688-2.1125 2.1168-3.9663 3.9232-4.1195 4.0143-0.34064 0.20268-0.84317 0.26239-1.1729 0.13936z" />
</svg>
