<svg width="15" height="16" version="1.1" viewBox="0 0 15 16" xml:space="preserve" xmlns="http://www.w3.org/2000/svg">
















<g fill="#4d4d4d"><g transform="matrix(.10944 0 0 .12002 .50996 .40535)">
	
		<path d="m8 112v-96c0-4.414 3.594-8 8-8h80c4.414 0 8 3.586 8 8v47.031l8-8v-39.031c0-8.836-7.164-16-16-16h-80c-8.836 0-16 7.164-16 16v96c0 8.836 7.164 16 16 16h44v-8h-44c-4.406 0-8-3.586-8-8zm80-88h-64v8h64zm0 16h-64v8h64zm0 16h-64v8h64zm-64 24h32v-8h-32zm101.66-8-5.656-5.656c-1.563-1.563-3.609-2.344-5.656-2.344s-4.094 0.781-5.656 2.344l-34.344 34.344c-1.563 1.562-6.344 7.605-6.344 9.652l-4 17.66 17.656-4s8.094-4.781 9.656-6.344l34.344-34.344c3.125-3.124 3.125-8.191 0-11.312zm-37.164 42.82c-0.453 0.43-2.02 1.488-3.934 2.707l-10.363-10.363c1.063-1.457 2.246-2.922 2.977-3.648l25.859-25.859 11.313 11.313z"/>
	
</g></g></svg>
