<?xml version="1.0" encoding="iso-8859-1"?>
<!DOCTYPE svg PUBLIC "-//W3C//DTD SVG 1.1//EN" "http://www.w3.org/Graphics/SVG/1.1/DTD/svg11.dtd">
<svg version="1.1" id="Layer_1" xmlns="http://www.w3.org/2000/svg" xmlns:xlink="http://www.w3.org/1999/xlink" x="0px" y="0px"
	viewBox="0 0 56 69.001" style="enable-background:new 0 0 56 69.001;" xml:space="preserve">
<g id="File">
	<g>
		<path  d="M52,0H4C1.791,0,0,1.79,0,4v51.999c0,2.21,1.791,4,4,4h34l18-18V4C56,1.79,54.209,0,52,0z"/>
	</g>
</g>
<g id="Container">
	<g>
		<path style="fill:#FFFFFF;" d="M50,4H6C4.895,4,4,4.896,4,6v48c0,1.104,0.895,1.999,2,1.999h30L52,40V6C52,4.896,51.104,4,50,4z"
			/>
	</g>
</g>
<g id="Corner">
	<g>
		<path d="M42,41.999c-2.209,0-4,1.792-4,4.001v13.999l18-18H42z"/>
	</g>
</g>
<g id="Text">
	<g>
		<path style="fill-rule:evenodd;clip-rule:evenodd;" d="M42,28H14c-1.105,0-2,0.896-2,2s0.895,1.999,2,1.999h28
			c1.104,0,2-0.895,2-1.999S43.104,28,42,28z M14,23.999h16c1.104,0,2-0.895,2-1.999s-0.896-2-2-2H14c-1.105,0-2,0.896-2,2
			S12.895,23.999,14,23.999z M14,15.999h28c1.104,0,2-0.895,2-1.999s-0.896-2.001-2-2.001H14c-1.105,0-2,0.896-2,2.001
			S12.895,15.999,14,15.999z"/>
	</g>
</g>
<g id="Ribbon">
	<g>
		<polygon  points="15,55.001 15,69.001 20,65 25,69.001 25,55.001 		"/>
	</g>
</g>
<g id="Elipse_2_">
	<g>
		<circle  cx="20" cy="48" r="9"/>
	</g>
</g>
<g>
</g>
<g>
</g>
<g>
</g>
<g>
</g>
<g>
</g>
<g>
</g>
<g>
</g>
<g>
</g>
<g>
</g>
<g>
</g>
<g>
</g>
<g>
</g>
<g>
</g>
<g>
</g>
<g>
</g>
</svg>
